<?xml version="1.0" encoding="utf-8"?>
<!DOCTYPE svg PUBLIC "-//W3C//DTD SVG 1.1//EN" "http://www.w3.org/Graphics/SVG/1.1/DTD/svg11.dtd">
<svg version="1.1" id="Layer_1" xmlns="http://www.w3.org/2000/svg" xmlns:xlink="http://www.w3.org/1999/xlink" x="0px" y="0px"
	 width="1119.814px" height="131.656px" viewBox="0 0 1119.814 131.656" enable-background="new 0 0 1119.814 131.656"
	 xml:space="preserve">
<g>
	<g>
		<path fill="#FFFFFF" d="M147.011,47.919L116.213,1.955C115.39,0.734,114.019,0,112.549,0H73.882c-0.005,0-0.005,0-0.005,0h-0.004
			H35.205c-1.473,0-2.846,0.734-3.664,1.955L0.744,47.919c-1.102,1.65-0.968,3.833,0.328,5.337L58.46,119.78
			c0.839,0.974,2.058,1.529,3.341,1.529h0.021c1.288-0.005,2.511-0.577,3.34-1.563l8.714-10.311l8.715,10.311
			c0.832,0.986,2.053,1.559,3.345,1.563h0.021c1.283,0,2.502-0.556,3.336-1.529l57.393-66.524
			C147.984,51.752,148.118,49.569,147.011,47.919 M85.993,110.11l-6.342-7.509l41.243-48.809c1.283-1.52,1.39-3.711,0.264-5.345
			l-19.17-27.813c-1.381-2.007-4.124-2.508-6.13-1.127c-2.008,1.38-2.511,4.126-1.132,6.128l17.256,25.04L73.877,95.773
			L35.774,50.676l17.252-25.04c1.381-2.002,0.877-4.748-1.13-6.128c-2.006-1.385-4.748-0.88-6.13,1.127L26.603,48.448
			c-1.132,1.634-1.02,3.825,0.259,5.345l41.247,48.809l-6.347,7.509L9.941,50.039L37.561,8.817h36.312h0.004c0,0,0,0,0.005,0h36.317
			l27.615,41.222L85.993,110.11z"/>
		<path fill="#FFFFFF" d="M85.971,32.799c-2.006-1.384-4.748-0.878-6.13,1.128L60.672,61.738c-1.382,2.002-0.874,4.749,1.129,6.131
			c0.767,0.525,1.635,0.779,2.496,0.779c1.404,0,2.782-0.667,3.635-1.912l19.167-27.806C88.482,36.925,87.978,34.179,85.971,32.799"
			/>
	</g>
	<path fill="#FFFFFF" d="M224.831,9.781c1.289,0,2.392,0.46,3.311,1.377c0.917,0.918,1.377,2.021,1.377,3.311
		s-0.459,2.394-1.377,3.311c-0.918,0.918-2.021,1.377-3.311,1.377c-12.5,0-18.75,6.25-18.75,18.75v3.516h14.121
		c1.289,0,2.392,0.46,3.311,1.377c0.917,0.918,1.377,2.021,1.377,3.311s-0.459,2.394-1.377,3.311
		c-0.918,0.918-2.021,1.377-3.311,1.377h-14.121v48.047c0,1.289-0.459,2.394-1.377,3.311c-0.918,0.918-2.021,1.377-3.311,1.377
		s-2.393-0.459-3.311-1.377c-0.918-0.917-1.377-2.021-1.377-3.311V50.797h-4.688c-1.289,0-2.393-0.459-3.311-1.377
		c-0.918-0.917-1.377-2.021-1.377-3.311s0.458-2.393,1.377-3.311c0.917-0.917,2.021-1.377,3.311-1.377h4.688v-3.516
		C196.706,19.156,206.081,9.781,224.831,9.781z"/>
	<path fill="#FFFFFF" d="M246.206,42.594c0-1.289,0.458-2.393,1.377-3.311c0.917-0.917,2.021-1.377,3.311-1.377
		s2.392,0.46,3.311,1.377c0.917,0.918,1.377,2.021,1.377,3.311v5.156c6.562-6.562,14.375-9.844,23.438-9.844
		c4.57,0,8.769,0.782,12.598,2.344c0.703,0.273,1.348,0.684,1.934,1.23c0.898,0.938,1.348,2.051,1.348,3.34
		s-0.459,2.394-1.377,3.311c-0.918,0.918-2.021,1.377-3.311,1.377c-0.743,0-1.426-0.155-2.051-0.469
		c-2.774-1.172-5.821-1.758-9.141-1.758c-6.485,0-12.012,2.285-16.582,6.855s-6.855,10.099-6.855,16.582v28.125
		c0,1.289-0.459,2.394-1.377,3.311c-0.918,0.918-2.021,1.377-3.311,1.377s-2.393-0.459-3.311-1.377
		c-0.918-0.917-1.377-2.021-1.377-3.311V42.594z"/>
	<path fill="#FFFFFF" d="M371.081,70.719c0,9.062-3.204,16.797-9.609,23.203c-6.407,6.407-14.141,9.609-23.203,9.609
		c-9.063,0-16.797-3.202-23.203-9.609c-6.407-6.406-9.609-14.141-9.609-23.203c0-9.062,3.203-16.796,9.609-23.203
		c6.406-6.406,14.14-9.609,23.203-9.609c9.062,0,16.796,3.203,23.203,9.609C367.877,53.923,371.081,61.657,371.081,70.719z
		 M338.268,47.281c-6.485,0-12.012,2.285-16.582,6.855s-6.855,10.099-6.855,16.582c0,6.484,2.285,12.012,6.855,16.582
		s10.097,6.855,16.582,6.855c6.484,0,12.012-2.285,16.582-6.855s6.855-10.098,6.855-16.582c0-6.483-2.285-12.012-6.855-16.582
		S344.752,47.281,338.268,47.281z"/>
	<path fill="#FFFFFF" d="M392.456,42.594c0-1.289,0.458-2.393,1.377-3.311c0.917-0.917,2.021-1.377,3.311-1.377
		s2.392,0.46,3.311,1.377c0.917,0.918,1.377,2.021,1.377,3.311v3.809c5.859-5.663,12.891-8.496,21.094-8.496
		c8.398,0,15.576,2.979,21.533,8.936c5.956,5.957,8.936,13.135,8.936,21.533v30.469c0,1.289-0.46,2.394-1.377,3.311
		c-0.918,0.918-2.021,1.377-3.311,1.377s-2.394-0.459-3.311-1.377c-0.918-0.917-1.377-2.021-1.377-3.311V68.375
		c0-5.82-2.061-10.79-6.182-14.912c-4.122-4.121-9.092-6.182-14.912-6.182c-5.821,0-10.792,2.061-14.912,6.182
		c-4.122,4.122-6.182,9.092-6.182,14.912v30.469c0,1.289-0.459,2.394-1.377,3.311c-0.918,0.918-2.021,1.377-3.311,1.377
		s-2.393-0.459-3.311-1.377c-0.918-0.917-1.377-2.021-1.377-3.311V42.594z"/>
	<path fill="#FFFFFF" d="M503.581,94.156c1.289,0,2.393,0.46,3.311,1.377c0.917,0.918,1.377,2.021,1.377,3.311
		s-0.46,2.394-1.377,3.311c-0.918,0.918-2.021,1.377-3.311,1.377c-15.625,0-23.438-7.812-23.438-23.438V47.281h-4.688
		c-1.289,0-2.394-0.459-3.311-1.377c-0.918-0.917-1.377-2.021-1.377-3.311s0.459-2.393,1.377-3.311
		c0.917-0.917,2.021-1.377,3.311-1.377h4.688V14.469c0-1.289,0.459-2.393,1.377-3.311c0.917-0.917,2.021-1.377,3.311-1.377
		s2.393,0.46,3.311,1.377c0.917,0.918,1.377,2.021,1.377,3.311v23.438h9.434c1.289,0,2.393,0.46,3.311,1.377
		c0.917,0.918,1.377,2.021,1.377,3.311s-0.46,2.394-1.377,3.311c-0.918,0.918-2.021,1.377-3.311,1.377h-9.434v32.812
		C489.518,89.469,494.206,94.156,503.581,94.156z"/>
	<path fill="#FFFFFF" d="M574.502,87.594c1.289,0,2.393,0.46,3.311,1.377c0.917,0.918,1.377,2.021,1.377,3.311
		s-0.449,2.402-1.348,3.34c-6.056,5.273-13.184,7.91-21.386,7.91c-9.062,0-16.797-3.202-23.203-9.609
		c-6.407-6.406-9.609-14.141-9.609-23.203c0-9.062,3.202-16.796,9.609-23.203c6.406-6.406,14.141-9.609,23.203-9.609
		c9.061,0,16.795,3.203,23.203,9.609c6.406,6.407,9.609,14.142,9.609,23.203c0,1.289-0.46,2.394-1.377,3.311
		c-0.918,0.918-2.021,1.377-3.311,1.377h-51.152c0.858,4.492,3.008,8.458,6.445,11.895c4.57,4.57,10.098,6.855,16.582,6.855
		c5.859,0,10.898-1.854,15.117-5.566C572.431,87.926,573.408,87.594,574.502,87.594z M579.482,66.031
		c-0.859-4.491-3.009-8.457-6.445-11.895c-4.57-4.57-10.099-6.855-16.582-6.855c-6.484,0-12.012,2.285-16.582,6.855
		c-3.438,3.438-5.587,7.403-6.445,11.895H579.482z"/>
	<path fill="#FFFFFF" d="M610.643,42.594c0-1.289,0.459-2.393,1.377-3.311c0.917-0.917,2.021-1.377,3.311-1.377
		s2.393,0.46,3.311,1.377c0.917,0.918,1.377,2.021,1.377,3.311v3.809c5.859-5.663,12.891-8.496,21.094-8.496
		c8.398,0,15.576,2.979,21.533,8.936c5.956,5.957,8.936,13.135,8.936,21.533v30.469c0,1.289-0.46,2.394-1.377,3.311
		c-0.918,0.918-2.021,1.377-3.311,1.377s-2.394-0.459-3.311-1.377c-0.918-0.917-1.377-2.021-1.377-3.311V68.375
		c0-5.82-2.061-10.79-6.182-14.912c-4.122-4.121-9.092-6.182-14.912-6.182c-5.821,0-10.791,2.061-14.912,6.182
		c-4.122,4.122-6.182,9.092-6.182,14.912v30.469c0,1.289-0.46,2.394-1.377,3.311c-0.918,0.918-2.021,1.377-3.311,1.377
		s-2.394-0.459-3.311-1.377c-0.918-0.917-1.377-2.021-1.377-3.311V42.594z"/>
	<path fill="#FFFFFF" d="M749.205,14.352c0-1.289,0.459-2.393,1.377-3.311c0.917-0.917,2.021-1.377,3.311-1.377
		s2.393,0.46,3.311,1.377c0.917,0.918,1.377,2.021,1.377,3.311v56.367c0,9.062-3.203,16.797-9.609,23.203
		c-6.407,6.407-14.142,9.609-23.203,9.609c-9.062,0-16.797-3.202-23.203-9.609c-6.407-6.406-9.609-14.141-9.609-23.203
		c0-9.062,3.202-16.796,9.609-23.203c6.406-6.406,14.141-9.609,23.203-9.609c9.062,0,16.796,3.203,23.203,9.609
		c0.078,0.079,0.155,0.156,0.234,0.234V14.352z M749.205,70.719c0-6.483-2.285-12.012-6.855-16.582s-10.099-6.855-16.582-6.855
		c-6.484,0-12.012,2.285-16.582,6.855s-6.855,10.099-6.855,16.582c0,6.484,2.285,12.012,6.855,16.582s10.098,6.855,16.582,6.855
		c6.483,0,12.012-2.285,16.582-6.855S749.205,77.203,749.205,70.719z"/>
	<path fill="#FFFFFF" d="M838.205,93.688c-0.079,0.079-0.156,0.156-0.234,0.234c-6.407,6.407-14.142,9.609-23.203,9.609
		c-9.062,0-16.797-3.202-23.203-9.609c-6.407-6.406-9.609-14.141-9.609-23.203c0-9.062,3.202-16.796,9.609-23.203
		c6.406-6.406,14.141-9.609,23.203-9.609c9.062,0,16.796,3.203,23.203,9.609c6.406,6.407,9.609,14.142,9.609,23.203v32.812
		c0,6.835-2.461,12.773-7.383,17.812c-6.876,6.875-15.176,10.312-24.902,10.312s-18.009-3.438-24.844-10.312
		c-2.54-2.5-4.609-5.215-6.211-8.145c-0.469-0.703-0.703-1.523-0.703-2.461c0-1.289,0.459-2.394,1.377-3.311
		c0.917-0.918,2.021-1.377,3.311-1.377s2.402,0.448,3.34,1.348c0.39,0.43,0.723,0.898,0.996,1.406
		c1.172,2.109,2.675,4.081,4.512,5.918c5.039,5.039,11.112,7.559,18.223,7.559c7.109,0,13.184-2.52,18.223-7.559
		c3.125-3.75,4.688-7.48,4.688-11.191V93.688z M814.768,47.281c-6.484,0-12.012,2.285-16.582,6.855s-6.855,10.099-6.855,16.582
		c0,6.484,2.285,12.012,6.855,16.582s10.098,6.855,16.582,6.855c6.483,0,12.012-2.285,16.582-6.855s6.855-10.098,6.855-16.582
		c0-6.483-2.285-12.012-6.855-16.582S821.251,47.281,814.768,47.281z"/>
	<path fill="#FFFFFF" d="M916.814,87.594c1.289,0,2.393,0.46,3.311,1.377c0.917,0.918,1.377,2.021,1.377,3.311
		s-0.449,2.402-1.348,3.34c-6.056,5.273-13.184,7.91-21.387,7.91c-9.062,0-16.797-3.202-23.203-9.609
		c-6.407-6.406-9.609-14.141-9.609-23.203c0-9.062,3.202-16.796,9.609-23.203c6.406-6.406,14.141-9.609,23.203-9.609
		c9.062,0,16.796,3.203,23.203,9.609c6.406,6.407,9.609,14.142,9.609,23.203c0,1.289-0.46,2.394-1.377,3.311
		c-0.918,0.918-2.021,1.377-3.311,1.377H875.74c0.858,4.492,3.008,8.458,6.445,11.895c4.57,4.57,10.098,6.855,16.582,6.855
		c5.859,0,10.898-1.854,15.117-5.566C914.743,87.926,915.721,87.594,916.814,87.594z M921.795,66.031
		c-0.859-4.491-3.009-8.457-6.445-11.895c-4.57-4.57-10.099-6.855-16.582-6.855c-6.484,0-12.012,2.285-16.582,6.855
		c-3.438,3.438-5.587,7.403-6.445,11.895H921.795z"/>
	<path fill="#FFFFFF" d="M961.33,98.844c0,1.289-0.46,2.394-1.377,3.311c-0.918,0.918-2.021,1.377-3.311,1.377
		s-2.394-0.459-3.311-1.377c-0.918-0.917-1.377-2.021-1.377-3.311v-56.25c0-1.289,0.459-2.393,1.377-3.311
		c0.917-0.917,2.021-1.377,3.311-1.377s2.393,0.46,3.311,1.377c0.917,0.918,1.377,2.021,1.377,3.311v1.23
		c4.648-3.945,10.116-5.918,16.406-5.918c7.109,0,13.184,2.52,18.223,7.559c1.055,1.055,2.012,2.168,2.871,3.34
		c0.858-1.172,1.816-2.285,2.871-3.34c5.039-5.039,11.112-7.559,18.223-7.559c7.109,0,13.184,2.52,18.223,7.559
		s7.559,11.113,7.559,18.223v35.156c0,1.289-0.46,2.394-1.377,3.311c-0.918,0.918-2.021,1.377-3.311,1.377s-2.394-0.459-3.311-1.377
		c-0.918-0.917-1.377-2.021-1.377-3.311V63.688c0-4.531-1.603-8.398-4.805-11.602c-3.203-3.202-7.07-4.805-11.602-4.805
		c-4.532,0-8.399,1.603-11.602,4.805c-3.203,3.203-4.805,7.07-4.805,11.602v35.156c0,1.289-0.46,2.394-1.377,3.311
		c-0.918,0.918-2.021,1.377-3.311,1.377s-2.394-0.459-3.311-1.377c-0.918-0.917-1.377-2.021-1.377-3.311V63.688
		c0-4.531-1.603-8.398-4.805-11.602c-3.203-3.202-7.07-4.805-11.602-4.805c-4.532,0-8.399,1.603-11.602,4.805
		c-3.203,3.203-4.805,7.07-4.805,11.602V98.844z"/>
	<path fill="#FFFFFF" d="M1078.682,70.719c-3.555-1.327-6.035-2.715-7.441-4.16c-2.774-2.733-4.16-6.035-4.16-9.902
		s1.444-7.245,4.336-10.137c5.625-5.742,12.969-8.613,22.031-8.613c9.805,0,18.202,3.926,25.195,11.777
		c0.624,0.742,0.917,1.661,0.879,2.754c0,1.289-0.46,2.394-1.377,3.311c-0.918,0.918-2.021,1.377-3.311,1.377
		s-2.324-0.41-3.105-1.23c-0.782-0.82-1.348-1.406-1.699-1.758c-4.57-4.57-10.099-6.855-16.582-6.855
		c-6.484,0-11.66,2.031-15.527,6.094c-0.938,1.134-1.406,2.481-1.406,4.043c0.117,1.837,1.074,3.086,2.871,3.75l28.828,9.551
		c3.554,1.328,6.035,2.716,7.441,4.16c2.773,2.734,4.16,6.035,4.16,9.902s-1.445,7.246-4.336,10.137
		c-5.625,5.742-12.97,8.613-22.031,8.613c-9.844,0-18.243-3.926-25.195-11.777c-0.586-0.82-0.879-1.737-0.879-2.754
		c0-1.289,0.459-2.393,1.377-3.311c0.917-0.917,2.021-1.377,3.311-1.377s2.323,0.41,3.105,1.23c0.781,0.82,1.348,1.406,1.699,1.758
		c4.57,4.57,10.098,6.855,16.582,6.855c6.483,0,11.66-2.03,15.527-6.094c0.938-1.133,1.406-2.48,1.406-4.043
		c-0.117-1.836-1.075-3.085-2.871-3.75L1078.682,70.719z"/>
</g>
</svg>
